<svg width="20" height="19" viewBox="0 0 20 19" fill="none" xmlns="http://www.w3.org/2000/svg">
<path d="M9.81313 10.2587C10.4153 10.7233 11.0127 11.1813 11.6054 11.6426C11.7239 11.7348 11.8566 11.8203 11.9198 11.9455C11.9921 12.0886 11.8397 12.2968 11.6313 12.3209C11.4527 12.3415 11.296 12.315 11.1687 12.2088C10.6255 11.7553 10.0366 11.3328 9.46789 10.8967C9.13459 10.6411 8.77855 10.3891 8.58375 10.064C8.47454 9.88179 8.33171 9.85965 8.10229 9.86498C7.65837 9.8753 7.21368 9.86793 6.76931 9.86809C6.7051 9.86811 6.64089 9.86189 6.60738 9.92034C6.43715 10.2173 6.14156 10.4517 5.85024 10.6843C5.42437 11.0243 4.97332 11.3476 4.54279 11.6846C3.86975 12.2114 3.20944 12.7457 2.73641 13.3852C2.38222 13.864 2.20503 14.3699 2.28629 14.9126C2.3415 15.2813 2.5313 15.6178 2.82257 15.9237C3.31011 16.4359 3.97689 16.7868 4.7483 17.04C5.34038 17.2344 5.96142 17.3515 6.60811 17.4133C7.16268 17.4663 7.71889 17.4755 8.26806 17.4356C9.34343 17.3574 10.3545 17.1253 11.2502 16.6674C11.5178 16.5306 11.8079 16.6031 11.9162 16.8249C11.9699 16.9349 11.9072 17.069 11.7513 17.1498C11.2781 17.3947 10.767 17.5886 10.2201 17.7321C9.7018 17.8681 9.16968 17.9658 8.62222 18.0131C7.97798 18.0687 7.3338 18.078 6.68549 18.0287C6.15431 17.9882 5.63478 17.9176 5.12912 17.7969C3.83015 17.487 2.73209 16.9761 1.99747 16.1154C1.53713 15.5761 1.35841 14.9834 1.44163 14.3552C1.52008 13.7629 1.84795 13.2337 2.28377 12.7357C2.81998 12.123 3.50068 11.5977 4.18436 11.0737C4.6577 10.711 5.15226 10.3621 5.57784 9.96779C5.61437 9.93394 5.64777 9.89832 5.68069 9.86544C5.33985 9.57241 5.33879 9.5059 5.66979 9.26529C5.52489 9.0392 5.2963 8.85454 5.07488 8.66654C4.74399 8.38559 4.35941 8.14198 4.01542 7.87011C3.85763 7.7454 3.728 7.61091 3.68122 7.4382C3.61004 7.17539 3.72239 6.95314 3.96037 6.76369C4.26946 6.51763 4.67398 6.40254 5.11979 6.35179C5.942 6.25821 6.69416 6.41082 7.41228 6.68858C7.60771 6.76417 7.7989 6.84534 8.01401 6.89279C8.1261 6.91752 8.22994 6.91737 8.34037 6.89713C8.65732 6.83903 8.97248 6.77325 9.2933 6.7296C9.59513 6.68852 9.89721 6.65606 10.2115 6.71161C10.7268 6.80268 10.9962 7.12162 10.8682 7.49796C10.7698 7.78751 10.5167 8.0185 10.2777 8.25332C9.97606 8.54961 9.63951 8.82814 9.41022 9.16137C9.36365 9.22904 9.36656 9.2645 9.45588 9.30913C9.71095 9.43657 9.7219 9.66248 9.47895 9.80109C9.40116 9.84547 9.39363 9.87846 9.45245 9.93088C9.57205 10.0375 9.6888 10.1457 9.81313 10.2587ZM5.08886 6.97762C4.93198 7.00889 4.78101 7.04993 4.65265 7.12491C4.4695 7.2319 4.45875 7.32291 4.62004 7.44456C4.9564 7.69823 5.30134 7.94608 5.63159 8.20383C5.98149 8.47692 6.31394 8.76383 6.50892 9.11285C6.57761 9.23581 6.66471 9.25754 6.8241 9.25528C7.27729 9.24883 7.73077 9.25326 8.18413 9.25327C8.44332 9.25328 8.44321 9.25313 8.53641 9.07421C8.54619 9.05542 8.5584 9.03729 8.56922 9.01878C8.79934 8.62517 9.16805 8.2974 9.52059 7.96142C9.70468 7.78598 9.90043 7.61564 10.0197 7.40819C10.0602 7.33763 10.0369 7.3068 9.93951 7.29811C9.89847 7.29445 9.85631 7.29331 9.81508 7.29543C9.48217 7.31251 9.16119 7.37273 8.83972 7.43373C8.59539 7.48009 8.35254 7.54875 8.09379 7.52418C7.77426 7.49383 7.47813 7.41125 7.19687 7.29651C6.86662 7.16177 6.52874 7.03976 6.15312 6.98073C5.8053 6.92606 5.45942 6.90954 5.08886 6.97762Z" fill="white"/>
<path d="M14.3038 2.18835C14.9796 2.18993 15.6444 2.16389 16.3029 2.19962C17.2671 2.25194 17.9527 2.62718 18.3684 3.25965C18.5352 3.51337 18.5851 3.7837 18.5852 4.06123C18.5854 6.39591 18.5858 8.73059 18.5861 11.0653C18.5861 11.2999 18.4362 11.4221 18.1526 11.4194C17.9317 11.4173 17.7598 11.2977 17.7503 11.1346C17.7445 11.0341 17.7467 10.9333 17.7468 10.8327C17.7472 8.56846 17.7419 6.30421 17.7518 4.03999C17.755 3.29763 16.9831 2.78487 16.0155 2.78461C12.4924 2.78366 8.96936 2.78401 5.44631 2.78452C5.39278 2.78453 5.33573 2.77364 5.27749 2.80162C5.30691 2.87048 5.38384 2.91681 5.43559 2.97395C5.70829 3.27499 5.86666 3.60137 5.86658 3.9644C5.86644 4.54471 5.86701 5.12503 5.86608 5.70535C5.86586 5.84512 5.73633 5.9711 5.56931 5.99925C5.36012 6.0345 5.16732 5.97364 5.07676 5.8413C5.03035 5.77348 5.03097 5.6983 5.02711 5.6251C5.02252 5.53801 5.02599 5.4507 5.02578 5.36348C5.0254 5.1968 5.02535 5.19642 4.80179 5.19636C3.71849 5.1961 2.63518 5.19604 1.55188 5.19597C1.47318 5.19596 1.39438 5.19833 1.31581 5.1962C1.04 5.18872 0.880105 5.06915 0.879689 4.87042C0.879051 4.56516 0.868187 4.25964 0.881884 3.95471C0.911496 3.29544 1.32181 2.78977 2.09406 2.44242C2.49662 2.26135 2.94078 2.18566 3.41523 2.18595C7.04012 2.18817 10.665 2.18786 14.3038 2.18835ZM3.40099 4.60079C3.82196 4.60065 4.24293 4.6004 4.6639 4.60039C5.02646 4.60038 5.03226 4.60042 5.02559 4.3368C5.02013 4.12058 5.04482 3.90548 4.97735 3.68821C4.79339 3.09579 3.86836 2.68158 3.03421 2.81404C2.33542 2.92501 1.70585 3.40924 1.7238 3.95897C1.72949 4.13317 1.73117 4.30774 1.72157 4.48177C1.71637 4.57612 1.76402 4.60338 1.88828 4.60249C2.38322 4.59893 2.87823 4.60088 3.40099 4.60079Z" fill="white"/>
<path d="M17.3036 11.7465C17.6644 11.7422 18.0118 11.7398 18.3583 11.7411C18.9642 11.7433 19.4253 12.0536 19.4244 12.4933C19.421 14.0929 19.423 15.6925 19.4227 17.2922C19.4226 17.6731 19.1281 17.9512 18.6198 18.0476C18.5627 18.0584 18.5005 18.0572 18.4406 18.0572C16.7513 18.0577 15.062 18.058 13.3727 18.0576C12.8358 18.0575 12.3803 17.7288 12.38 17.3397C12.3788 15.7099 12.3787 14.0801 12.3792 12.4503C12.3793 12.1217 12.7367 11.8266 13.1844 11.7635C13.3504 11.7401 13.514 11.7349 13.6802 11.7354C14.8834 11.7389 16.0866 11.7427 17.3036 11.7465ZM13.2253 15.6084C13.2244 16.1548 13.2231 16.7013 13.2229 17.2477C13.2228 17.4311 13.2677 17.4629 13.5221 17.463C15.109 17.4632 16.6959 17.4634 18.2829 17.4633C18.539 17.4633 18.582 17.4328 18.582 17.2475C18.5815 16.158 18.5785 15.0684 18.5824 13.979C18.5828 13.8756 18.5385 13.8494 18.4003 13.8497C16.7348 13.8528 15.0692 13.8529 13.4036 13.8497C13.2646 13.8495 13.2212 13.8761 13.2225 13.9792C13.2291 14.5155 13.2254 15.0519 13.2253 15.6084ZM13.4897 12.3565C13.2564 12.358 13.2267 12.3796 13.2264 12.5492C13.2261 12.7336 13.2263 12.9181 13.2264 13.1025C13.2264 13.2424 13.2265 13.2424 13.4169 13.2425C14.3148 13.2428 15.2127 13.2432 16.1105 13.2433C16.8695 13.2434 17.6286 13.2435 18.3876 13.2431C18.5777 13.243 18.5782 13.242 18.5787 13.1019C18.5794 12.9309 18.5736 12.7597 18.5809 12.5889C18.5891 12.3981 18.5522 12.3251 18.2507 12.3548C18.2144 12.3583 18.1768 12.3555 18.1397 12.3555C16.5986 12.3559 15.0574 12.3562 13.4897 12.3565Z" fill="white"/>
<path d="M11.0654 8.92758C11.1071 8.66506 11.1706 8.41647 11.3206 8.18208C11.6229 7.70967 12.0972 7.36254 12.7494 7.14508C13.2035 6.99367 13.6842 6.93004 14.1799 6.96755C15.2502 7.04852 16.0395 7.4373 16.5248 8.13593C16.7358 8.43969 16.8394 8.76497 16.8125 9.10674C16.7529 9.86106 16.278 10.4396 15.3875 10.832C14.8527 11.0677 14.259 11.1599 13.6428 11.1088C12.8691 11.0447 12.2158 10.7947 11.7161 10.3524C11.3456 10.0244 11.141 9.64708 11.081 9.22652C11.0672 9.12986 11.0394 9.03415 11.0654 8.92758ZM12.1393 8.36235C11.7568 8.89623 11.869 9.5412 12.3979 9.98837C12.9514 10.4563 13.7781 10.6169 14.5711 10.4333C15.2687 10.2719 15.878 9.75886 15.9146 9.31696C15.8698 9.29666 15.8179 9.30437 15.7687 9.30433C15.1949 9.30397 14.6211 9.30446 14.0473 9.30433C13.6744 9.30424 13.5198 9.1904 13.5197 8.91707C13.5197 8.52142 13.52 8.12577 13.5193 7.73012C13.519 7.60544 13.498 7.594 13.3331 7.63392C12.8102 7.76053 12.4119 7.99635 12.1393 8.36235ZM14.3668 8.54126C14.3684 8.68908 14.3684 8.68913 14.5719 8.6892C14.9555 8.68934 15.339 8.68982 15.7226 8.68931C15.894 8.68908 15.9059 8.67622 15.857 8.5541C15.8506 8.53809 15.8448 8.52182 15.8361 8.50642C15.5909 8.07058 15.1559 7.78211 14.5421 7.6332C14.388 7.5958 14.3675 7.60683 14.3671 7.7283C14.3661 7.99283 14.3668 8.25738 14.3668 8.54126Z" fill="white"/>
<path d="M6.57563 15.9065C6.21656 15.7852 5.93931 15.6087 5.74816 15.3645C5.62144 15.2025 5.67474 15.0172 5.87073 14.9293C6.08203 14.8345 6.32141 14.8778 6.46478 15.0483C6.60893 15.2196 6.80332 15.3352 7.06747 15.3866C7.12804 15.3504 7.10959 15.3071 7.11038 15.2692C7.11632 14.981 7.12988 14.693 7.11399 14.4046C7.10319 14.2085 7.10971 14.2103 6.84176 14.1539C6.55038 14.0926 6.27746 14.0025 6.04843 13.8548C5.68023 13.6173 5.51966 13.3064 5.56104 12.963C5.60733 12.5789 5.89513 12.282 6.34983 12.0756C6.55127 11.9841 6.76942 11.9186 6.99865 11.8778C7.09622 11.8604 7.10993 11.8251 7.1112 11.765C7.11295 11.6824 7.09894 11.6001 7.14816 11.5179C7.23838 11.3672 7.40752 11.2867 7.61489 11.3109C7.81014 11.3337 7.97021 11.4745 7.97426 11.6269C7.9803 11.8539 7.98224 11.8496 8.28534 11.9222C8.72608 12.0278 9.0827 12.2164 9.32396 12.5084C9.49454 12.7149 9.35332 12.9404 9.03071 12.9836C8.88387 13.0033 8.71061 12.9446 8.62035 12.8391C8.49095 12.6878 8.31069 12.5834 8.08224 12.5212C8.05734 12.5144 8.03123 12.5032 7.99947 12.5162C7.96208 12.5414 7.97497 12.5771 7.97484 12.6091C7.97355 12.9311 7.97751 13.2532 7.97117 13.5751C7.96949 13.6605 8.0174 13.6932 8.12435 13.7102C8.41506 13.7564 8.68798 13.8327 8.93863 13.954C9.39572 14.1754 9.6111 14.6894 9.49734 15.0409C9.332 15.5519 8.86551 15.8317 8.21538 15.9885C7.93484 16.0562 7.97775 15.998 7.97349 16.2213C7.96957 16.426 7.81201 16.5756 7.5818 16.5886C7.33891 16.6023 7.13305 16.4638 7.11705 16.2758C7.09691 16.0393 7.0966 16.04 6.79118 15.9685C6.72112 15.952 6.65405 15.9289 6.57563 15.9065ZM8.22288 15.3291C8.30866 15.2954 8.38732 15.2545 8.45823 15.2061C8.68778 15.0492 8.74747 14.823 8.61926 14.5981C8.5411 14.461 8.2357 14.3319 7.99408 14.3339C7.95141 14.4617 7.96571 15.3209 8.01236 15.3856C8.08356 15.3844 8.14419 15.3597 8.22288 15.3291ZM6.42288 13.1595C6.4828 13.3854 6.72226 13.4737 6.98405 13.5464C7.09687 13.5778 7.12097 13.5438 7.11937 13.4679C7.11381 13.2041 7.11524 12.9402 7.11147 12.6764C7.11069 12.6214 7.14891 12.5649 7.1056 12.511C6.69262 12.5453 6.39903 12.8164 6.42288 13.1595Z" fill="white"/>
<path d="M11.8621 4.0277C13.2871 4.0275 14.6982 4.02714 16.1093 4.0275C16.1878 4.02752 16.2666 4.03083 16.3446 4.03721C16.5455 4.05368 16.6958 4.16991 16.7021 4.31046C16.7095 4.47237 16.5836 4.59229 16.3712 4.61985C16.299 4.62922 16.2243 4.63234 16.1507 4.63235C13.2267 4.63289 10.3027 4.63285 7.37867 4.63213C7.30519 4.63212 7.23 4.6295 7.15855 4.61825C6.95661 4.58648 6.84405 4.47235 6.85195 4.31592C6.85942 4.16814 6.98636 4.05994 7.18559 4.03937C7.27671 4.02996 7.3699 4.02795 7.46216 4.02791C8.92417 4.02733 10.3862 4.02761 11.8621 4.0277Z" fill="white"/>
<path d="M11.6402 5.07091C11.816 5.07096 11.9781 5.06971 12.14 5.07138C12.3755 5.0738 12.5503 5.18027 12.565 5.3277C12.5849 5.5277 12.4636 5.64157 12.1958 5.67151C12.1458 5.6771 12.0944 5.67759 12.0437 5.67761C10.5209 5.67811 8.99816 5.6784 7.4754 5.67814C7.37394 5.67812 7.2725 5.68125 7.1714 5.66502C6.96346 5.63163 6.84494 5.52048 6.85185 5.35892C6.85798 5.21556 7.00345 5.09397 7.19719 5.07498C7.26098 5.06873 7.3265 5.07057 7.39123 5.07056C8.80291 5.07052 10.2146 5.07074 11.6402 5.07091Z" fill="white"/>
<path d="M15.8351 5.07122C15.997 5.07159 16.1452 5.069 16.293 5.07302C16.5175 5.07913 16.6912 5.1962 16.7031 5.34402C16.7173 5.52015 16.5885 5.63758 16.347 5.66719C16.3016 5.67275 16.2554 5.67754 16.2095 5.67759C15.465 5.67836 14.7204 5.6787 13.9758 5.67802C13.8641 5.67792 13.7537 5.66824 13.6604 5.61652C13.5222 5.5399 13.4607 5.40956 13.5079 5.29509C13.5624 5.16289 13.6993 5.07817 13.8928 5.07364C14.1423 5.0678 14.3922 5.07144 14.6419 5.07133C15.035 5.07115 15.4281 5.07125 15.8351 5.07122Z" fill="white"/>
<path d="M3.08388 15.393C2.98054 15.2268 2.9042 15.0624 2.85054 14.892C2.79754 14.7238 2.94651 14.5538 3.18689 14.5137C3.39043 14.4797 3.62381 14.5968 3.67195 14.7566C3.77295 15.0918 3.9866 15.3843 4.31335 15.6322C4.41546 15.7096 4.52617 15.7813 4.63488 15.854C4.80732 15.9695 4.83341 16.1529 4.69341 16.2799C4.54813 16.4116 4.28902 16.435 4.09919 16.3203C3.6756 16.0645 3.31902 15.768 3.08388 15.393Z" fill="white"/>
<path d="M15.7371 15.3526C15.837 15.3515 15.9247 15.3495 16.0123 15.3513C16.2096 15.3553 16.3524 15.4473 16.4054 15.602C16.442 15.7087 16.3534 15.8451 16.207 15.9074C16.0041 15.9938 15.7095 15.9815 15.5417 15.8797C15.2769 15.719 15.3715 15.4471 15.7371 15.3526Z" fill="white"/>
<path d="M13.6862 15.5177C13.8574 15.3289 14.2638 15.2808 14.4967 15.4157C14.7326 15.5523 14.6974 15.8168 14.4299 15.917C14.0969 16.0418 13.7169 15.9304 13.6461 15.6894C13.6284 15.6293 13.6569 15.578 13.6862 15.5177Z" fill="white"/>
<path d="M13.8746 14.8936C13.7045 14.8188 13.6168 14.7165 13.6462 14.5798C13.6782 14.4314 13.8119 14.3476 14.033 14.3181C14.274 14.286 14.4911 14.3457 14.5918 14.4718C14.7568 14.6784 14.5706 14.9181 14.2404 14.9195C14.1216 14.9201 13.9992 14.9375 13.8746 14.8936Z" fill="white"/>
<path d="M17.7128 15.964C17.548 15.9699 17.404 15.9505 17.2871 15.8742C17.1231 15.7673 17.1168 15.5856 17.2482 15.4551C17.3941 15.3104 17.9497 15.308 18.0912 15.4801C18.2202 15.637 18.1617 15.8351 17.9362 15.9178C17.87 15.9421 17.7999 15.9593 17.7128 15.964Z" fill="white"/>
<path d="M16.3649 14.4938C16.4838 14.7279 16.3011 14.9201 15.9679 14.92C15.8675 14.92 15.7639 14.9345 15.6668 14.9057C15.5026 14.857 15.4005 14.7641 15.3948 14.639C15.3895 14.5212 15.4645 14.4224 15.6177 14.3596C15.8297 14.2726 16.2527 14.2999 16.3649 14.4938Z" fill="white"/>
<path d="M15.4227 16.7757C15.3543 16.5931 15.4608 16.4501 15.7007 16.3932C15.907 16.3443 16.1067 16.3594 16.275 16.4586C16.5096 16.5969 16.4313 16.8837 16.1402 16.9554C15.9857 16.9935 15.8212 16.989 15.6633 16.9553C15.5436 16.9298 15.4759 16.8618 15.4227 16.7757Z" fill="white"/>
<path d="M18.1512 14.6955C18.0572 14.8671 17.9513 14.9209 17.7084 14.92C17.6037 14.9196 17.4968 14.9335 17.3954 14.898C17.1583 14.8149 17.0823 14.6019 17.2365 14.4475C17.36 14.3238 17.6611 14.275 17.8926 14.3411C18.0882 14.3969 18.1857 14.5263 18.1512 14.6955Z" fill="white"/>
<path d="M14.5913 16.8286C14.4367 17.015 14.1931 16.9884 13.968 16.9676C13.7868 16.9508 13.6854 16.8524 13.6481 16.7222C13.6189 16.6198 13.6786 16.5363 13.7668 16.4673C13.9462 16.3269 14.3726 16.3345 14.5467 16.4793C14.6711 16.5828 14.6928 16.699 14.5913 16.8286Z" fill="white"/>
<path d="M17.1939 16.8013C17.1173 16.673 17.1482 16.5612 17.2741 16.4712C17.4207 16.3663 17.6045 16.3523 17.802 16.3788C18.1193 16.4214 18.2747 16.6812 18.0704 16.8641C18.0559 16.877 18.0413 16.8902 18.0243 16.9014C17.8111 17.0419 17.3451 16.9889 17.1939 16.8013Z" fill="white"/>
</svg>
